# MagicaVoxel @ Ephtracy

# group
o 

# material
mtllib CubePlayer.mtl
usemtl palette

# normals
vn -1 0 0
vn 1 0 0
vn 0 0 1
vn 0 0 -1
vn 0 -1 0
vn 0 1 0

# texcoords
vt 0.0175781 0.5
vt 0.896484 0.5
vt 0.958984 0.5
vt 0.994141 0.5

# verts
v -0.4 0.3 0.1
v -0.4 0.3 0
v -0.4 0.3 -0.1
v -0.4 0.3 -0.2
v -0.4 0.4 0.1
v -0.4 0.4 0
v -0.4 0.4 -0.1
v -0.4 0.4 -0.2
v -0.3 -0.5 0.2
v -0.3 -0.5 -0.3
v -0.3 -0.3 0.2
v -0.3 -0.3 -0.3
v -0.3 0.3 0.2
v -0.3 0.3 0.1
v -0.3 0.3 0
v -0.3 0.3 -0.1
v -0.3 0.3 -0.2
v -0.3 0.3 -0.3
v 0.1 0.3 0.1
v 0.1 0.3 0
v 0.1 0.3 -0.1
v 0.1 0.3 -0.2
v 0.1 0.4 0.1
v 0.1 0.4 0
v 0.1 0.4 -0.1
v 0.1 0.4 -0.2
v 0.2 -0.5 0.2
v 0.2 -0.5 0
v 0.2 -0.5 -0.1
v 0.2 -0.5 -0.3
v 0.2 -0.2 0.2
v 0.2 -0.2 0
v 0.2 -0.2 -0.1
v 0.2 -0.2 -0.3
v 0.2 0.1 0.2
v 0.2 0.1 -0.3
v 0.2 0.2 0.2
v 0.2 0.2 0.1
v 0.2 0.2 -0.2
v 0.2 0.2 -0.3
v 0.2 0.3 0.2
v 0.2 0.3 0.1
v 0.2 0.3 -0.2
v 0.2 0.3 -0.3
v 0.3 -0.2 0.2
v 0.3 -0.2 -0.3
v 0.3 -0.1 0.2
v 0.3 -0.1 -0.3
v 0.3 0 0.2
v 0.3 0 -0.3
v 0.3 0.1 0.2
v 0.3 0.1 -0.3
v -0.3 -0.5 0.2
v -0.3 -0.3 0.2
v -0.3 0.3 0.2
v -0.2 -0.5 0.2
v -0.2 -0.3 0.2
v 0.1 -0.2 0.2
v 0.1 0.1 0.2
v 0.1 0.2 0.2
v 0.1 0.3 0.2
v 0.2 -0.5 0.2
v 0.2 -0.2 0.2
v 0.2 -0.1 0.2
v 0.2 0 0.2
v 0.2 0.1 0.2
v 0.2 0.2 0.2
v 0.2 0.3 0.2
v 0.3 -0.2 0.2
v 0.3 -0.1 0.2
v 0.3 0 0.2
v 0.3 0.1 0.2
v -0.4 0.3 0.1
v -0.4 0.4 0.1
v -0.3 0.3 0.1
v 0.1 0.3 0.1
v 0.1 0.4 0.1
v -0.4 0.3 -0.1
v -0.4 0.4 -0.1
v -0.3 0.3 -0.1
v 0.1 0.3 -0.1
v 0.1 0.4 -0.1
v -0.4 0.3 0
v -0.4 0.4 0
v -0.3 0.3 0
v 0.1 0.3 0
v 0.1 0.4 0
v -0.4 0.3 -0.2
v -0.4 0.4 -0.2
v -0.3 0.3 -0.2
v 0.1 0.3 -0.2
v 0.1 0.4 -0.2
v -0.3 -0.5 -0.3
v -0.3 -0.3 -0.3
v -0.3 0.3 -0.3
v -0.2 -0.5 -0.3
v -0.2 -0.3 -0.3
v 0.1 -0.2 -0.3
v 0.1 0.1 -0.3
v 0.1 0.2 -0.3
v 0.1 0.3 -0.3
v 0.2 -0.5 -0.3
v 0.2 -0.2 -0.3
v 0.2 -0.1 -0.3
v 0.2 0 -0.3
v 0.2 0.1 -0.3
v 0.2 0.2 -0.3
v 0.2 0.3 -0.3
v 0.3 -0.2 -0.3
v 0.3 -0.1 -0.3
v 0.3 0 -0.3
v 0.3 0.1 -0.3
v -0.3 -0.5 0.2
v -0.2 -0.5 0.2
v 0.2 -0.5 0.2
v 0.1 -0.5 0
v 0.2 -0.5 0
v 0.1 -0.5 -0.1
v 0.2 -0.5 -0.1
v -0.3 -0.5 -0.3
v -0.2 -0.5 -0.3
v 0.2 -0.5 -0.3
v 0.2 -0.2 0.2
v 0.3 -0.2 0.2
v 0.2 -0.2 0
v 0.2 -0.2 -0.1
v 0.2 -0.2 -0.3
v 0.3 -0.2 -0.3
v -0.4 0.3 0.1
v -0.3 0.3 0.1
v -0.4 0.3 0
v -0.3 0.3 0
v -0.4 0.3 -0.1
v -0.3 0.3 -0.1
v -0.4 0.3 -0.2
v -0.3 0.3 -0.2
v 0.2 0.1 0.2
v 0.3 0.1 0.2
v 0.2 0.1 -0.3
v 0.3 0.1 -0.3
v -0.3 0.3 0.2
v 0.1 0.3 0.2
v 0.2 0.3 0.2
v -0.3 0.3 0.1
v 0.1 0.3 0.1
v 0.2 0.3 0.1
v -0.3 0.3 0
v 0.1 0.3 0
v -0.3 0.3 -0.1
v 0.1 0.3 -0.1
v -0.3 0.3 -0.2
v 0.1 0.3 -0.2
v 0.2 0.3 -0.2
v -0.3 0.3 -0.3
v 0.1 0.3 -0.3
v 0.2 0.3 -0.3
v -0.4 0.4 0.1
v 0.1 0.4 0.1
v -0.4 0.4 0
v 0.1 0.4 0
v -0.4 0.4 -0.1
v 0.1 0.4 -0.1
v -0.4 0.4 -0.2
v 0.1 0.4 -0.2

# faces
f 5/2/1 2/2/1 1/2/1
f 6/2/1 2/2/1 5/2/1
f 7/2/1 4/2/1 3/2/1
f 8/2/1 4/2/1 7/2/1
f 11/3/1 10/3/1 9/3/1
f 12/3/1 10/3/1 11/3/1
f 13/1/1 12/1/1 11/1/1
f 14/1/1 12/1/1 13/1/1
f 15/1/1 12/1/1 14/1/1
f 16/1/1 12/1/1 15/1/1
f 17/1/1 12/1/1 16/1/1
f 18/1/1 12/1/1 17/1/1
f 19/2/2 20/2/2 23/2/2
f 23/2/2 20/2/2 24/2/2
f 21/2/2 22/2/2 25/2/2
f 25/2/2 22/2/2 26/2/2
f 27/1/2 28/1/2 31/1/2
f 28/4/2 29/4/2 32/4/2
f 31/1/2 28/1/2 32/1/2
f 29/1/2 30/1/2 33/1/2
f 32/4/2 29/4/2 33/4/2
f 33/1/2 30/1/2 34/1/2
f 35/1/2 36/1/2 37/1/2
f 37/1/2 36/1/2 38/1/2
f 38/1/2 36/1/2 39/1/2
f 39/1/2 36/1/2 40/1/2
f 37/4/2 38/4/2 41/4/2
f 38/1/2 39/1/2 42/1/2
f 41/4/2 38/4/2 42/4/2
f 39/4/2 40/4/2 43/4/2
f 42/1/2 39/1/2 43/1/2
f 43/4/2 40/4/2 44/4/2
f 45/3/2 46/3/2 47/3/2
f 47/3/2 46/3/2 48/3/2
f 47/4/2 48/4/2 49/4/2
f 49/4/2 48/4/2 50/4/2
f 49/3/2 50/3/2 51/3/2
f 51/3/2 50/3/2 52/3/2
f 56/3/3 54/3/3 53/3/3
f 57/1/3 55/1/3 54/1/3
f 57/3/3 54/3/3 56/3/3
f 58/1/3 57/1/3 56/1/3
f 58/1/3 55/1/3 57/1/3
f 59/1/3 55/1/3 58/1/3
f 60/1/3 55/1/3 59/1/3
f 61/1/3 55/1/3 60/1/3
f 62/1/3 58/1/3 56/1/3
f 63/3/3 59/3/3 58/3/3
f 63/1/3 58/1/3 62/1/3
f 64/3/3 59/3/3 63/3/3
f 65/3/3 59/3/3 64/3/3
f 66/1/3 60/1/3 59/1/3
f 66/3/3 59/3/3 65/3/3
f 67/4/3 61/4/3 60/4/3
f 67/1/3 60/1/3 66/1/3
f 68/4/3 61/4/3 67/4/3
f 69/3/3 64/3/3 63/3/3
f 70/4/3 65/4/3 64/4/3
f 70/3/3 64/3/3 69/3/3
f 71/3/3 66/3/3 65/3/3
f 71/4/3 65/4/3 70/4/3
f 72/3/3 66/3/3 71/3/3
f 75/2/3 74/2/3 73/2/3
f 76/2/3 74/2/3 75/2/3
f 77/2/3 74/2/3 76/2/3
f 80/2/3 79/2/3 78/2/3
f 81/2/3 79/2/3 80/2/3
f 82/2/3 79/2/3 81/2/3
f 83/2/4 84/2/4 85/2/4
f 85/2/4 84/2/4 86/2/4
f 86/2/4 84/2/4 87/2/4
f 88/2/4 89/2/4 90/2/4
f 90/2/4 89/2/4 91/2/4
f 91/2/4 89/2/4 92/2/4
f 93/3/4 94/3/4 96/3/4
f 94/1/4 95/1/4 97/1/4
f 96/3/4 94/3/4 97/3/4
f 96/1/4 97/1/4 98/1/4
f 97/1/4 95/1/4 98/1/4
f 98/1/4 95/1/4 99/1/4
f 99/1/4 95/1/4 100/1/4
f 100/1/4 95/1/4 101/1/4
f 96/1/4 98/1/4 102/1/4
f 98/3/4 99/3/4 103/3/4
f 102/1/4 98/1/4 103/1/4
f 103/3/4 99/3/4 104/3/4
f 104/3/4 99/3/4 105/3/4
f 99/1/4 100/1/4 106/1/4
f 105/3/4 99/3/4 106/3/4
f 100/4/4 101/4/4 107/4/4
f 106/1/4 100/1/4 107/1/4
f 107/4/4 101/4/4 108/4/4
f 103/3/4 104/3/4 109/3/4
f 104/4/4 105/4/4 110/4/4
f 109/3/4 104/3/4 110/3/4
f 105/3/4 106/3/4 111/3/4
f 110/4/4 105/4/4 111/4/4
f 111/3/4 106/3/4 112/3/4
f 116/1/5 115/1/5 114/1/5
f 117/1/5 115/1/5 116/1/5
f 118/1/5 116/1/5 114/1/5
f 118/4/5 117/4/5 116/4/5
f 119/4/5 117/4/5 118/4/5
f 120/3/5 114/3/5 113/3/5
f 121/1/5 118/1/5 114/1/5
f 121/3/5 114/3/5 120/3/5
f 121/1/5 119/1/5 118/1/5
f 122/1/5 119/1/5 121/1/5
f 125/3/5 124/3/5 123/3/5
f 126/3/5 124/3/5 125/3/5
f 127/3/5 124/3/5 126/3/5
f 128/3/5 124/3/5 127/3/5
f 131/2/5 130/2/5 129/2/5
f 132/2/5 130/2/5 131/2/5
f 135/2/5 134/2/5 133/2/5
f 136/2/5 134/2/5 135/2/5
f 137/3/6 138/3/6 139/3/6
f 139/3/6 138/3/6 140/3/6
f 141/1/6 142/1/6 144/1/6
f 142/4/6 143/4/6 145/4/6
f 144/1/6 142/1/6 145/1/6
f 145/4/6 143/4/6 146/4/6
f 145/1/6 146/1/6 148/1/6
f 147/1/6 148/1/6 149/1/6
f 148/1/6 146/1/6 150/1/6
f 149/1/6 148/1/6 150/1/6
f 150/1/6 146/1/6 152/1/6
f 152/1/6 146/1/6 153/1/6
f 151/1/6 152/1/6 154/1/6
f 152/4/6 153/4/6 155/4/6
f 154/1/6 152/1/6 155/1/6
f 155/4/6 153/4/6 156/4/6
f 157/2/6 158/2/6 159/2/6
f 159/2/6 158/2/6 160/2/6
f 161/2/6 162/2/6 163/2/6
f 163/2/6 162/2/6 164/2/6
