# MagicaVoxel @ Ephtracy

# group
o 

# material
mtllib Target.mtl
usemtl palette

# normals
vn -1 0 0
vn 1 0 0
vn 0 0 1
vn 0 0 -1
vn 0 -1 0
vn 0 1 0

# texcoords
vt 0.0175781 0.5
vt 0.0878906 0.5
vt 0.841797 0.5
vt 0.931641 0.5
vt 0.994141 0.5

# verts
v -0.5 0.3 0.1
v -0.5 0.3 -1.49012e-08
v -0.5 0.7 0.1
v -0.5 0.7 -1.49012e-08
v -0.4 0.2 0.1
v -0.4 0.2 -1.49012e-08
v -0.4 0.3 0.1
v -0.4 0.3 -1.49012e-08
v -0.4 0.7 0.1
v -0.4 0.7 -1.49012e-08
v -0.4 0.8 0.1
v -0.4 0.8 -1.49012e-08
v -0.3 0.1 0.1
v -0.3 0.1 -1.49012e-08
v -0.3 0.2 0.1
v -0.3 0.2 -1.49012e-08
v -0.3 0.8 0.1
v -0.3 0.8 -1.49012e-08
v -0.3 0.9 0.1
v -0.3 0.9 -1.49012e-08
v -0.2 0 0.1
v -0.2 0 -1.49012e-08
v -0.2 0.1 0.1
v -0.2 0.1 -1.49012e-08
v -0.2 0.9 0.1
v -0.2 0.9 -1.49012e-08
v -0.2 1 0.1
v -0.2 1 -1.49012e-08
v 0.2 0 0.1
v 0.2 0 -1.49012e-08
v 0.2 0.1 0.1
v 0.2 0.1 -1.49012e-08
v 0.2 0.9 0.1
v 0.2 0.9 -1.49012e-08
v 0.2 1 0.1
v 0.2 1 -1.49012e-08
v 0.3 0.1 0.1
v 0.3 0.1 -1.49012e-08
v 0.3 0.2 0.1
v 0.3 0.2 -1.49012e-08
v 0.3 0.8 0.1
v 0.3 0.8 -1.49012e-08
v 0.3 0.9 0.1
v 0.3 0.9 -1.49012e-08
v 0.4 0.2 0.1
v 0.4 0.2 -1.49012e-08
v 0.4 0.3 0.1
v 0.4 0.3 -1.49012e-08
v 0.4 0.7 0.1
v 0.4 0.7 -1.49012e-08
v 0.4 0.8 0.1
v 0.4 0.8 -1.49012e-08
v 0.5 0.3 0.1
v 0.5 0.3 -1.49012e-08
v 0.5 0.7 0.1
v 0.5 0.7 -1.49012e-08
v -0.5 0.3 0.1
v -0.5 0.7 0.1
v -0.4 0.2 0.1
v -0.4 0.3 0.1
v -0.4 0.7 0.1
v -0.4 0.8 0.1
v -0.3 0.1 0.1
v -0.3 0.2 0.1
v -0.3 0.3 0.1
v -0.3 0.4 0.1
v -0.3 0.6 0.1
v -0.3 0.7 0.1
v -0.3 0.8 0.1
v -0.3 0.9 0.1
v -0.2 0 0.1
v -0.2 0.1 0.1
v -0.2 0.2 0.1
v -0.2 0.3 0.1
v -0.2 0.4 0.1
v -0.2 0.6 0.1
v -0.2 0.7 0.1
v -0.2 0.8 0.1
v -0.2 0.9 0.1
v -0.2 1 0.1
v -0.1 0.2 0.1
v -0.1 0.3 0.1
v -0.1 0.4 0.1
v -0.1 0.6 0.1
v -0.1 0.7 0.1
v -0.1 0.8 0.1
v 0.1 0.2 0.1
v 0.1 0.3 0.1
v 0.1 0.4 0.1
v 0.1 0.6 0.1
v 0.1 0.7 0.1
v 0.1 0.8 0.1
v 0.2 0 0.1
v 0.2 0.1 0.1
v 0.2 0.2 0.1
v 0.2 0.3 0.1
v 0.2 0.4 0.1
v 0.2 0.6 0.1
v 0.2 0.7 0.1
v 0.2 0.8 0.1
v 0.2 0.9 0.1
v 0.2 1 0.1
v 0.3 0.1 0.1
v 0.3 0.2 0.1
v 0.3 0.3 0.1
v 0.3 0.4 0.1
v 0.3 0.6 0.1
v 0.3 0.7 0.1
v 0.3 0.8 0.1
v 0.3 0.9 0.1
v 0.4 0.2 0.1
v 0.4 0.3 0.1
v 0.4 0.7 0.1
v 0.4 0.8 0.1
v 0.5 0.3 0.1
v 0.5 0.7 0.1
v -0.5 0.3 -1.49012e-08
v -0.5 0.7 -1.49012e-08
v -0.4 0.2 -1.49012e-08
v -0.4 0.3 -1.49012e-08
v -0.4 0.7 -1.49012e-08
v -0.4 0.8 -1.49012e-08
v -0.3 0.1 -1.49012e-08
v -0.3 0.2 -1.49012e-08
v -0.3 0.3 -1.49012e-08
v -0.3 0.4 -1.49012e-08
v -0.3 0.6 -1.49012e-08
v -0.3 0.7 -1.49012e-08
v -0.3 0.8 -1.49012e-08
v -0.3 0.9 -1.49012e-08
v -0.2 0 -1.49012e-08
v -0.2 0.1 -1.49012e-08
v -0.2 0.2 -1.49012e-08
v -0.2 0.3 -1.49012e-08
v -0.2 0.4 -1.49012e-08
v -0.2 0.6 -1.49012e-08
v -0.2 0.7 -1.49012e-08
v -0.2 0.8 -1.49012e-08
v -0.2 0.9 -1.49012e-08
v -0.2 1 -1.49012e-08
v -0.1 0.2 -1.49012e-08
v -0.1 0.3 -1.49012e-08
v -0.1 0.4 -1.49012e-08
v -0.1 0.6 -1.49012e-08
v -0.1 0.7 -1.49012e-08
v -0.1 0.8 -1.49012e-08
v 0.1 0.2 -1.49012e-08
v 0.1 0.3 -1.49012e-08
v 0.1 0.4 -1.49012e-08
v 0.1 0.6 -1.49012e-08
v 0.1 0.7 -1.49012e-08
v 0.1 0.8 -1.49012e-08
v 0.2 0 -1.49012e-08
v 0.2 0.1 -1.49012e-08
v 0.2 0.2 -1.49012e-08
v 0.2 0.3 -1.49012e-08
v 0.2 0.4 -1.49012e-08
v 0.2 0.6 -1.49012e-08
v 0.2 0.7 -1.49012e-08
v 0.2 0.8 -1.49012e-08
v 0.2 0.9 -1.49012e-08
v 0.2 1 -1.49012e-08
v 0.3 0.1 -1.49012e-08
v 0.3 0.2 -1.49012e-08
v 0.3 0.3 -1.49012e-08
v 0.3 0.4 -1.49012e-08
v 0.3 0.6 -1.49012e-08
v 0.3 0.7 -1.49012e-08
v 0.3 0.8 -1.49012e-08
v 0.3 0.9 -1.49012e-08
v 0.4 0.2 -1.49012e-08
v 0.4 0.3 -1.49012e-08
v 0.4 0.7 -1.49012e-08
v 0.4 0.8 -1.49012e-08
v 0.5 0.3 -1.49012e-08
v 0.5 0.7 -1.49012e-08
v -0.2 0 0.1
v 0.2 0 0.1
v -0.2 0 -1.49012e-08
v 0.2 0 -1.49012e-08
v -0.3 0.1 0.1
v -0.2 0.1 0.1
v 0.2 0.1 0.1
v 0.3 0.1 0.1
v -0.3 0.1 -1.49012e-08
v -0.2 0.1 -1.49012e-08
v 0.2 0.1 -1.49012e-08
v 0.3 0.1 -1.49012e-08
v -0.4 0.2 0.1
v -0.3 0.2 0.1
v 0.3 0.2 0.1
v 0.4 0.2 0.1
v -0.4 0.2 -1.49012e-08
v -0.3 0.2 -1.49012e-08
v 0.3 0.2 -1.49012e-08
v 0.4 0.2 -1.49012e-08
v -0.5 0.3 0.1
v -0.4 0.3 0.1
v 0.4 0.3 0.1
v 0.5 0.3 0.1
v -0.5 0.3 -1.49012e-08
v -0.4 0.3 -1.49012e-08
v 0.4 0.3 -1.49012e-08
v 0.5 0.3 -1.49012e-08
v -0.5 0.7 0.1
v -0.4 0.7 0.1
v 0.4 0.7 0.1
v 0.5 0.7 0.1
v -0.5 0.7 -1.49012e-08
v -0.4 0.7 -1.49012e-08
v 0.4 0.7 -1.49012e-08
v 0.5 0.7 -1.49012e-08
v -0.4 0.8 0.1
v -0.3 0.8 0.1
v 0.3 0.8 0.1
v 0.4 0.8 0.1
v -0.4 0.8 -1.49012e-08
v -0.3 0.8 -1.49012e-08
v 0.3 0.8 -1.49012e-08
v 0.4 0.8 -1.49012e-08
v -0.3 0.9 0.1
v -0.2 0.9 0.1
v 0.2 0.9 0.1
v 0.3 0.9 0.1
v -0.3 0.9 -1.49012e-08
v -0.2 0.9 -1.49012e-08
v 0.2 0.9 -1.49012e-08
v 0.3 0.9 -1.49012e-08
v -0.2 1 0.1
v 0.2 1 0.1
v -0.2 1 -1.49012e-08
v 0.2 1 -1.49012e-08

# faces
f 3/5/1 2/5/1 1/5/1
f 4/5/1 2/5/1 3/5/1
f 7/5/1 6/5/1 5/5/1
f 8/5/1 6/5/1 7/5/1
f 11/5/1 10/5/1 9/5/1
f 12/5/1 10/5/1 11/5/1
f 15/5/1 14/5/1 13/5/1
f 16/5/1 14/5/1 15/5/1
f 19/5/1 18/5/1 17/5/1
f 20/5/1 18/5/1 19/5/1
f 23/5/1 22/5/1 21/5/1
f 24/5/1 22/5/1 23/5/1
f 27/5/1 26/5/1 25/5/1
f 28/5/1 26/5/1 27/5/1
f 29/5/2 30/5/2 31/5/2
f 31/5/2 30/5/2 32/5/2
f 33/5/2 34/5/2 35/5/2
f 35/5/2 34/5/2 36/5/2
f 37/5/2 38/5/2 39/5/2
f 39/5/2 38/5/2 40/5/2
f 41/5/2 42/5/2 43/5/2
f 43/5/2 42/5/2 44/5/2
f 45/5/2 46/5/2 47/5/2
f 47/5/2 46/5/2 48/5/2
f 49/5/2 50/5/2 51/5/2
f 51/5/2 50/5/2 52/5/2
f 53/5/2 54/5/2 55/5/2
f 55/5/2 54/5/2 56/5/2
f 60/5/3 58/5/3 57/5/3
f 61/5/3 58/5/3 60/5/3
f 64/5/3 60/5/3 59/5/3
f 65/4/3 61/4/3 60/4/3
f 65/5/3 60/5/3 64/5/3
f 66/4/3 61/4/3 65/4/3
f 67/4/3 61/4/3 66/4/3
f 68/5/3 62/5/3 61/5/3
f 68/4/3 61/4/3 67/4/3
f 69/5/3 62/5/3 68/5/3
f 72/5/3 64/5/3 63/5/3
f 73/4/3 65/4/3 64/4/3
f 73/4/3 66/4/3 65/4/3
f 73/5/3 64/5/3 72/5/3
f 74/4/3 66/4/3 73/4/3
f 75/1/3 67/1/3 66/1/3
f 75/4/3 66/4/3 74/4/3
f 76/4/3 68/4/3 67/4/3
f 76/1/3 67/1/3 75/1/3
f 76/4/3 69/4/3 68/4/3
f 77/4/3 69/4/3 76/4/3
f 78/5/3 70/5/3 69/5/3
f 78/4/3 69/4/3 77/4/3
f 79/5/3 70/5/3 78/5/3
f 81/4/3 74/4/3 73/4/3
f 81/4/3 73/4/3 72/4/3
f 82/1/3 75/1/3 74/1/3
f 82/4/3 74/4/3 81/4/3
f 83/2/3 76/2/3 75/2/3
f 83/1/3 75/1/3 82/1/3
f 84/1/3 77/1/3 76/1/3
f 84/2/3 76/2/3 83/2/3
f 85/4/3 79/4/3 78/4/3
f 85/1/3 77/1/3 84/1/3
f 85/4/3 78/4/3 77/4/3
f 86/4/3 79/4/3 85/4/3
f 87/4/3 81/4/3 72/4/3
f 87/1/3 82/1/3 81/1/3
f 88/2/3 83/2/3 82/2/3
f 88/1/3 82/1/3 87/1/3
f 89/3/3 84/3/3 83/3/3
f 89/2/3 83/2/3 88/2/3
f 90/2/3 85/2/3 84/2/3
f 90/3/3 84/3/3 89/3/3
f 91/1/3 86/1/3 85/1/3
f 91/2/3 85/2/3 90/2/3
f 92/4/3 79/4/3 86/4/3
f 92/1/3 86/1/3 91/1/3
f 93/5/3 72/5/3 71/5/3
f 94/4/3 87/4/3 72/4/3
f 94/5/3 72/5/3 93/5/3
f 94/4/3 88/4/3 87/4/3
f 95/4/3 88/4/3 94/4/3
f 96/1/3 89/1/3 88/1/3
f 96/4/3 88/4/3 95/4/3
f 97/2/3 90/2/3 89/2/3
f 97/1/3 89/1/3 96/1/3
f 98/1/3 91/1/3 90/1/3
f 98/2/3 90/2/3 97/2/3
f 99/4/3 92/4/3 91/4/3
f 99/1/3 91/1/3 98/1/3
f 100/4/3 79/4/3 92/4/3
f 100/4/3 92/4/3 99/4/3
f 101/5/3 80/5/3 79/5/3
f 101/4/3 79/4/3 100/4/3
f 102/5/3 80/5/3 101/5/3
f 103/5/3 95/5/3 94/5/3
f 104/4/3 97/4/3 96/4/3
f 104/5/3 95/5/3 103/5/3
f 104/4/3 96/4/3 95/4/3
f 105/4/3 97/4/3 104/4/3
f 106/1/3 98/1/3 97/1/3
f 106/4/3 97/4/3 105/4/3
f 107/4/3 100/4/3 99/4/3
f 107/1/3 98/1/3 106/1/3
f 107/4/3 99/4/3 98/4/3
f 108/4/3 100/4/3 107/4/3
f 109/5/3 101/5/3 100/5/3
f 109/4/3 100/4/3 108/4/3
f 110/5/3 101/5/3 109/5/3
f 111/5/3 105/5/3 104/5/3
f 112/4/3 106/4/3 105/4/3
f 112/5/3 105/5/3 111/5/3
f 112/4/3 108/4/3 107/4/3
f 112/4/3 107/4/3 106/4/3
f 113/5/3 109/5/3 108/5/3
f 113/4/3 108/4/3 112/4/3
f 114/5/3 109/5/3 113/5/3
f 115/5/3 113/5/3 112/5/3
f 116/5/3 113/5/3 115/5/3
f 117/5/4 118/5/4 120/5/4
f 120/5/4 118/5/4 121/5/4
f 119/5/4 120/5/4 124/5/4
f 120/4/4 121/4/4 125/4/4
f 124/5/4 120/5/4 125/5/4
f 125/4/4 121/4/4 126/4/4
f 126/4/4 121/4/4 127/4/4
f 121/5/4 122/5/4 128/5/4
f 127/4/4 121/4/4 128/4/4
f 128/5/4 122/5/4 129/5/4
f 123/5/4 124/5/4 132/5/4
f 124/4/4 125/4/4 133/4/4
f 125/4/4 126/4/4 133/4/4
f 132/5/4 124/5/4 133/5/4
f 133/4/4 126/4/4 134/4/4
f 126/1/4 127/1/4 135/1/4
f 134/4/4 126/4/4 135/4/4
f 127/4/4 128/4/4 136/4/4
f 135/1/4 127/1/4 136/1/4
f 128/4/4 129/4/4 136/4/4
f 136/4/4 129/4/4 137/4/4
f 129/5/4 130/5/4 138/5/4
f 137/4/4 129/4/4 138/4/4
f 138/5/4 130/5/4 139/5/4
f 133/4/4 134/4/4 141/4/4
f 132/4/4 133/4/4 141/4/4
f 134/1/4 135/1/4 142/1/4
f 141/4/4 134/4/4 142/4/4
f 135/2/4 136/2/4 143/2/4
f 142/1/4 135/1/4 143/1/4
f 136/1/4 137/1/4 144/1/4
f 143/2/4 136/2/4 144/2/4
f 138/4/4 139/4/4 145/4/4
f 144/1/4 137/1/4 145/1/4
f 137/4/4 138/4/4 145/4/4
f 145/4/4 139/4/4 146/4/4
f 132/4/4 141/4/4 147/4/4
f 141/1/4 142/1/4 147/1/4
f 142/2/4 143/2/4 148/2/4
f 147/1/4 142/1/4 148/1/4
f 143/3/4 144/3/4 149/3/4
f 148/2/4 143/2/4 149/2/4
f 144/2/4 145/2/4 150/2/4
f 149/3/4 144/3/4 150/3/4
f 145/1/4 146/1/4 151/1/4
f 150/2/4 145/2/4 151/2/4
f 146/4/4 139/4/4 152/4/4
f 151/1/4 146/1/4 152/1/4
f 131/5/4 132/5/4 153/5/4
f 132/4/4 147/4/4 154/4/4
f 153/5/4 132/5/4 154/5/4
f 147/4/4 148/4/4 154/4/4
f 154/4/4 148/4/4 155/4/4
f 148/1/4 149/1/4 156/1/4
f 155/4/4 148/4/4 156/4/4
f 149/2/4 150/2/4 157/2/4
f 156/1/4 149/1/4 157/1/4
f 150/1/4 151/1/4 158/1/4
f 157/2/4 150/2/4 158/2/4
f 151/4/4 152/4/4 159/4/4
f 158/1/4 151/1/4 159/1/4
f 152/4/4 139/4/4 160/4/4
f 159/4/4 152/4/4 160/4/4
f 139/5/4 140/5/4 161/5/4
f 160/4/4 139/4/4 161/4/4
f 161/5/4 140/5/4 162/5/4
f 154/5/4 155/5/4 163/5/4
f 156/4/4 157/4/4 164/4/4
f 163/5/4 155/5/4 164/5/4
f 155/4/4 156/4/4 164/4/4
f 164/4/4 157/4/4 165/4/4
f 157/1/4 158/1/4 166/1/4
f 165/4/4 157/4/4 166/4/4
f 159/4/4 160/4/4 167/4/4
f 166/1/4 158/1/4 167/1/4
f 158/4/4 159/4/4 167/4/4
f 167/4/4 160/4/4 168/4/4
f 160/5/4 161/5/4 169/5/4
f 168/4/4 160/4/4 169/4/4
f 169/5/4 161/5/4 170/5/4
f 164/5/4 165/5/4 171/5/4
f 165/4/4 166/4/4 172/4/4
f 171/5/4 165/5/4 172/5/4
f 167/4/4 168/4/4 172/4/4
f 166/4/4 167/4/4 172/4/4
f 168/5/4 169/5/4 173/5/4
f 172/4/4 168/4/4 173/4/4
f 173/5/4 169/5/4 174/5/4
f 172/5/4 173/5/4 175/5/4
f 175/5/4 173/5/4 176/5/4
f 179/5/5 178/5/5 177/5/5
f 180/5/5 178/5/5 179/5/5
f 185/5/5 182/5/5 181/5/5
f 186/5/5 182/5/5 185/5/5
f 187/5/5 184/5/5 183/5/5
f 188/5/5 184/5/5 187/5/5
f 193/5/5 190/5/5 189/5/5
f 194/5/5 190/5/5 193/5/5
f 195/5/5 192/5/5 191/5/5
f 196/5/5 192/5/5 195/5/5
f 201/5/5 198/5/5 197/5/5
f 202/5/5 198/5/5 201/5/5
f 203/5/5 200/5/5 199/5/5
f 204/5/5 200/5/5 203/5/5
f 205/5/6 206/5/6 209/5/6
f 209/5/6 206/5/6 210/5/6
f 207/5/6 208/5/6 211/5/6
f 211/5/6 208/5/6 212/5/6
f 213/5/6 214/5/6 217/5/6
f 217/5/6 214/5/6 218/5/6
f 215/5/6 216/5/6 219/5/6
f 219/5/6 216/5/6 220/5/6
f 221/5/6 222/5/6 225/5/6
f 225/5/6 222/5/6 226/5/6
f 223/5/6 224/5/6 227/5/6
f 227/5/6 224/5/6 228/5/6
f 229/5/6 230/5/6 231/5/6
f 231/5/6 230/5/6 232/5/6
